<mxfile host="app.diagrams.net" modified="2024-03-09T10:29:24.867Z" agent="Mozilla/5.0 (Windows NT 10.0; Win64; x64; rv:123.0) Gecko/20100101 Firefox/123.0" etag="gpHe8SaoknDdmUWoi1Lb" version="24.0.3" type="device">
  <diagram name="Страница — 1" id="nxl9XqNRCJ6BDue0BRxx">
    <mxGraphModel dx="2222" dy="626" grid="1" gridSize="10" guides="1" tooltips="1" connect="1" arrows="1" fold="1" page="1" pageScale="1" pageWidth="827" pageHeight="1169" math="0" shadow="0">
      <root>
        <mxCell id="0" />
        <mxCell id="1" parent="0" />
        <mxCell id="AH59ZhgesOLRsbxX4VuY-5" value="" style="ellipse;whiteSpace=wrap;html=1;aspect=fixed;" vertex="1" parent="1">
          <mxGeometry x="-110" y="110" width="370" height="370" as="geometry" />
        </mxCell>
        <mxCell id="AH59ZhgesOLRsbxX4VuY-6" value="Исполнитель" style="text;html=1;align=center;verticalAlign=middle;whiteSpace=wrap;rounded=0;" vertex="1" parent="1">
          <mxGeometry x="45" y="120" width="60" height="30" as="geometry" />
        </mxCell>
        <mxCell id="AH59ZhgesOLRsbxX4VuY-8" value="Аналитик" style="rounded=1;whiteSpace=wrap;html=1;" vertex="1" parent="1">
          <mxGeometry x="15" y="160" width="120" height="60" as="geometry" />
        </mxCell>
        <mxCell id="AH59ZhgesOLRsbxX4VuY-9" value="Backend-разработчик" style="rounded=1;whiteSpace=wrap;html=1;" vertex="1" parent="1">
          <mxGeometry x="15" y="240" width="120" height="60" as="geometry" />
        </mxCell>
        <mxCell id="AH59ZhgesOLRsbxX4VuY-10" value="Мобильный Android-разработчик" style="rounded=1;whiteSpace=wrap;html=1;" vertex="1" parent="1">
          <mxGeometry x="15" y="320" width="120" height="60" as="geometry" />
        </mxCell>
        <mxCell id="AH59ZhgesOLRsbxX4VuY-11" value="Тестировщик" style="rounded=1;whiteSpace=wrap;html=1;" vertex="1" parent="1">
          <mxGeometry x="15" y="400" width="120" height="60" as="geometry" />
        </mxCell>
        <mxCell id="AH59ZhgesOLRsbxX4VuY-12" value="" style="rounded=1;whiteSpace=wrap;html=1;" vertex="1" parent="1">
          <mxGeometry x="310" y="160" width="190" height="260" as="geometry" />
        </mxCell>
        <mxCell id="AH59ZhgesOLRsbxX4VuY-13" value="Заказчик" style="text;html=1;align=center;verticalAlign=middle;whiteSpace=wrap;rounded=0;" vertex="1" parent="1">
          <mxGeometry x="375" y="160" width="60" height="30" as="geometry" />
        </mxCell>
        <mxCell id="AH59ZhgesOLRsbxX4VuY-14" value="Менеджер проекта" style="rounded=1;whiteSpace=wrap;html=1;" vertex="1" parent="1">
          <mxGeometry x="220" y="250" width="120" height="60" as="geometry" />
        </mxCell>
        <mxCell id="AH59ZhgesOLRsbxX4VuY-15" value="Мобильное приложение для автоматизации деятельности IT-отделов предприятия" style="rounded=1;whiteSpace=wrap;html=1;" vertex="1" parent="1">
          <mxGeometry x="10" y="550" width="470" height="60" as="geometry" />
        </mxCell>
        <mxCell id="AH59ZhgesOLRsbxX4VuY-16" value="" style="endArrow=classic;html=1;rounded=0;exitX=0.5;exitY=1;exitDx=0;exitDy=0;entryX=0.138;entryY=-0.031;entryDx=0;entryDy=0;entryPerimeter=0;" edge="1" parent="1" source="AH59ZhgesOLRsbxX4VuY-5" target="AH59ZhgesOLRsbxX4VuY-15">
          <mxGeometry width="50" height="50" relative="1" as="geometry">
            <mxPoint x="390" y="410" as="sourcePoint" />
            <mxPoint x="440" y="360" as="targetPoint" />
          </mxGeometry>
        </mxCell>
        <mxCell id="AH59ZhgesOLRsbxX4VuY-17" value="" style="endArrow=classic;html=1;rounded=0;exitX=0.5;exitY=1;exitDx=0;exitDy=0;entryX=0.841;entryY=-0.003;entryDx=0;entryDy=0;entryPerimeter=0;" edge="1" parent="1" source="AH59ZhgesOLRsbxX4VuY-12" target="AH59ZhgesOLRsbxX4VuY-15">
          <mxGeometry width="50" height="50" relative="1" as="geometry">
            <mxPoint x="390" y="410" as="sourcePoint" />
            <mxPoint x="440" y="360" as="targetPoint" />
          </mxGeometry>
        </mxCell>
      </root>
    </mxGraphModel>
  </diagram>
</mxfile>
